<?xml version="1.0" encoding="UTF-8" standalone="no"?>
<!DOCTYPE svg PUBLIC "-//W3C//DTD SVG 1.1//EN" "http://www.w3.org/Graphics/SVG/1.1/DTD/svg11.dtd">
<svg width="100%" height="100%" viewBox="0 0 800 600" version="1.1" xmlns="http://www.w3.org/2000/svg" xmlns:xlink="http://www.w3.org/1999/xlink" xml:space="preserve" xmlns:serif="http://www.serif.com/" style="fill-rule:evenodd;clip-rule:evenodd;stroke-linejoin:round;stroke-miterlimit:2;">
    <rect id="Artboard1" x="0" y="0" width="800" height="600" style="fill:none;"/>
    <g id="Artboard11" serif:id="Artboard1">
        <rect x="0" y="0" width="800" height="600" style="fill:rgb(59,118,238);"/>
        <path d="M0,337.694C76.154,325.056 166.513,319.417 223.767,318.628C308.433,317.462 397.153,321.772 543.267,349.628C654.853,370.902 726.43,382.353 800,384.662L800,600L0,600L0,337.694Z" style="fill:rgb(102,139,36);"/>
        <g transform="matrix(1.10973,0,0,1.11749,-1119.52,-7.3141)">
            <path d="M1440.19,245.012L1440.19,245.014C1447.96,250.148 1458.47,252.406 1469.12,251.232C1470.45,251.078 1471.78,250.872 1473.1,250.615C1475.31,265.837 1493.35,276.154 1513.75,273.869C1520.9,273.066 1527.73,270.748 1533.44,267.195C1541.28,272.564 1552.05,274.946 1562.95,273.716C1568.87,273.049 1574.59,271.346 1579.64,268.741C1587.4,273.712 1597.79,275.869 1608.28,274.687C1621.93,273.151 1633.89,266.189 1639.51,256.506C1640.08,256.584 1640.64,256.655 1641.21,256.718C1652.56,257.887 1663.69,255.155 1671.51,249.286L1671.51,249.282C1671.29,249.146 1671.29,249.146 1671.52,249.282C1677.46,244.838 1681.09,238.897 1681.78,232.449C1682.56,224.971 1679.34,217.389 1672.83,211.364C1666.33,205.343 1657.06,201.378 1647.09,200.336C1636.64,199.256 1626.33,201.479 1618.62,206.469C1615.74,198.506 1606.09,192.976 1595.08,192.974C1589.05,192.976 1583.23,194.651 1578.76,197.673C1576.87,173.341 1553.64,154.441 1525.62,154.445L1525.61,154.445C1498.87,154.458 1476.29,171.724 1472.83,194.798C1469.51,194.495 1466.13,194.527 1462.77,194.903C1452.8,196.025 1443.57,200.069 1437.12,206.146C1430.66,212.22 1427.51,219.831 1428.35,227.298C1429.16,234.249 1433.38,240.561 1440.19,245.012Z" style="fill:rgb(254,254,254);fill-rule:nonzero;"/>
        </g>
        <g transform="matrix(0.941159,0,0,0.941159,-789.526,-425.995)">
            <path d="M939.246,643.956L939.274,643.961L939.378,643.981L939.434,643.992L939.464,643.998C941.968,644.484 944.556,644.739 947.195,644.743C957.082,644.739 966.538,641.174 973.377,634.873C980.346,642.922 992.281,647.782 1005.09,647.785C1016.7,647.776 1027.65,643.775 1034.81,636.93C1041.16,647.219 1053.37,653.624 1066.65,653.632C1077.47,653.626 1087.74,649.353 1094.62,641.979C1101.37,646.125 1109.83,648.393 1118.56,648.399C1132.04,648.393 1144.5,643.009 1151.26,634.268C1156.65,637.282 1162.86,638.881 1169.18,638.886C1188.12,638.886 1203.46,624.941 1203.46,607.737C1203.46,607.611 1203.46,607.484 1203.46,607.358C1203.25,590.325 1187.98,576.576 1169.18,576.575C1165.39,576.583 1161.63,577.16 1158.05,578.286C1158.9,574.722 1159.32,571.079 1159.33,567.424C1159.33,554.451 1153.94,542.011 1144.36,532.839C1134.77,523.666 1121.77,518.513 1108.21,518.513L1108.21,518.513C1085,518.53 1064.7,533.518 1058.81,555.007C1052.96,552.398 1046.28,551.019 1039.46,551.019C1024.17,551.027 1010.39,557.935 1004.55,568.521C1001.13,565.961 997.127,563.962 992.85,562.677C977.298,558.021 961.864,563.691 958.376,575.341C957.735,577.501 957.54,579.78 957.798,582.098C954.362,581.171 950.789,580.699 947.197,580.698C927.162,580.698 910.918,595.033 910.918,612.715C910.917,621.207 914.739,629.351 921.543,635.356C926.441,639.678 932.594,642.637 939.246,643.956Z" style="fill:rgb(254,254,254);fill-rule:nonzero;"/>
        </g>
    </g>
</svg>
