<?xml version="1.0" encoding="UTF-8" standalone="no"?>
<!DOCTYPE svg PUBLIC "-//W3C//DTD SVG 1.1//EN" "http://www.w3.org/Graphics/SVG/1.1/DTD/svg11.dtd">
<svg width="100%" height="100%" viewBox="0 0 48 48" version="1.1" xmlns="http://www.w3.org/2000/svg" xmlns:xlink="http://www.w3.org/1999/xlink" xml:space="preserve" xmlns:serif="http://www.serif.com/" style="fill-rule:evenodd;clip-rule:evenodd;stroke-linejoin:round;stroke-miterlimit:2;">
    <g transform="matrix(1,0,0,1,-15011,-6130)">
        <g id="Icon" transform="matrix(0.0419608,0,0,0.0421875,14406.2,5850.44)">
            <rect x="14414.1" y="6626.58" width="1143.93" height="1137.78" style="fill:none;"/>
            <clipPath id="_clip1">
                <rect x="14414.1" y="6626.58" width="1143.93" height="1137.78"/>
            </clipPath>
            <g clip-path="url(#_clip1)">
                <g transform="matrix(23.8318,0,0,23.7037,-343325,-138677)">
                    <rect x="15011" y="6130" width="48" height="48" style="fill:rgb(3,13,38);"/>
                </g>
                <g>
                    <g transform="matrix(79.3343,0,-21.2576,78.9079,14281.4,-236270)">
                        <rect x="836.551" y="3081.24" width="1.008" height="8.4" style="fill:white;fill-rule:nonzero;"/>
                    </g>
                    <g transform="matrix(2.01761,0,-9.92198e-16,2.00677,-16531.1,-2308.04)">
                        <path d="M15810.8,4570.58C15828.5,4570.58 15843.4,4574.9 15855.3,4583.56C15867.2,4592.21 15875.4,4603.89 15879.9,4618.59C15884.3,4633.3 15884.2,4649.69 15879.3,4667.78C15874.4,4686.18 15865.7,4702.74 15853.1,4717.44C15840.6,4732.15 15826,4743.79 15809.3,4752.36C15792.7,4760.93 15775.7,4765.22 15758.6,4765.22L15713.7,4765.22L15724.3,4725.58L15765.7,4725.58C15776.4,4725.58 15786.9,4722.95 15797.2,4717.68C15807.5,4712.41 15816.5,4705.25 15824.2,4696.21C15831.9,4687.17 15837.2,4676.98 15840.2,4665.66C15843.3,4654.18 15843.4,4643.91 15840.6,4634.87C15837.7,4625.83 15832.6,4618.67 15825.1,4613.4C15817.6,4608.13 15808.6,4605.5 15797.9,4605.5L15756.5,4605.5L15765.8,4570.58L15810.8,4570.58Z" style="fill:white;fill-rule:nonzero;"/>
                    </g>
                    <g transform="matrix(79.3343,0,-21.2576,78.9079,13770.5,-236270)">
                        <rect x="836.551" y="3081.24" width="1.008" height="8.4" style="fill:white;fill-rule:nonzero;"/>
                    </g>
                    <g transform="matrix(2.01761,0,-4.96099e-16,2.00677,-15875.2,-2308.04)">
                        <path d="M15237.5,4570.58C15253.8,4570.58 15267.8,4573.92 15279.5,4580.61C15291.1,4587.29 15299.2,4597 15303.6,4609.74C15308.1,4622.48 15307.9,4637.74 15303.2,4655.51C15300.6,4665.11 15296.5,4674.35 15290.9,4683.23C15285.3,4692.12 15278.9,4699.75 15271.6,4706.12C15264.3,4712.49 15256.8,4716.78 15249.1,4718.98C15258.4,4721.49 15265.6,4725.94 15270.8,4732.31C15276,4738.68 15279.6,4746.11 15281.7,4754.6C15283.7,4763.1 15284.5,4771.98 15283.9,4781.26C15283.3,4790.54 15281.8,4799.51 15279.5,4808.16C15274.6,4826.4 15266.2,4842.48 15254.2,4856.4C15242.2,4870.32 15228.2,4881.22 15212.3,4889.08C15196.3,4896.94 15180,4900.88 15163.3,4900.88L15099.1,4900.88L15108.4,4865.96L15169.2,4865.96C15180,4865.96 15190.6,4863.17 15201,4857.58C15211.4,4852 15220.6,4844.33 15228.5,4834.58C15236.5,4824.83 15242.1,4813.82 15245.4,4801.55C15248.3,4790.7 15248.4,4780.44 15245.6,4770.76C15242.9,4761.09 15237.9,4753.27 15230.6,4747.29C15223.3,4741.31 15214.2,4738.32 15203.4,4738.32L15142.6,4738.32L15151.8,4704.11L15197.9,4704.11C15212.4,4704.11 15225.9,4699.83 15238.5,4691.26C15251.1,4682.68 15259.5,4670.69 15263.6,4655.28C15268.1,4638.61 15266.3,4626.14 15258.2,4617.88C15250.1,4609.63 15238.8,4605.5 15224.3,4605.5L15178.2,4605.5L15187.6,4570.58L15237.5,4570.58Z" style="fill:white;fill-rule:nonzero;"/>
                    </g>
                </g>
            </g>
        </g>
    </g>
</svg>
